<mxfile host="app.diagrams.net" modified="2023-04-25T22:46:38.110Z" agent="Mozilla/5.0 (Windows NT 10.0; Win64; x64) AppleWebKit/537.36 (KHTML, like Gecko) Chrome/112.0.0.0 Safari/537.36" version="21.1.2" etag="ZUROhj9jbds4XEP2Wbqb" type="github">
  <diagram name="Page-1" id="kHu11jt9mXuOPiRNsMyP">
    <mxGraphModel>
      <root>
        <mxCell id="0" />
        <mxCell id="1" parent="0" />
      </root>
    </mxGraphModel>
  </diagram>
</mxfile>
